<svg xmlns="http://www.w3.org/2000/svg" viewBox="0 0 80 80" width="48" height="48" xmlns:v="https://vecta.io/nano"><path fill="#8bb7f0" d="M46.5 40c0 3.593-2.907 6.5-6.5 6.5s-6.5-2.907-6.5-6.5 2.907-6.5 6.5-6.5 6.5 2.907 6.5 6.5z"/><path fill="#4e7ab5" d="M40 47c-3.859 0-7-3.14-7-7s3.141-7 7-7 7 3.14 7 7-3.141 7-7 7zm0-13c-3.309 0-6 2.691-6 6s2.691 6 6 6 6-2.691 6-6-2.691-6-6-6z"/><path fill="#8bb7f0" d="M24.474 75.503c-1.71 0-3.27-.392-4.632-1.164-2.28-1.293-3.856-3.52-4.686-6.62-.965-3.607-.85-8.398.332-13.878C5.956 50.562.5 45.53.5 40s5.455-10.562 14.987-13.84c-1.182-5.48-1.298-10.272-.333-13.88.83-3.1 2.406-5.328 4.685-6.62 1.362-.772 2.92-1.164 4.632-1.164 4.388 0 9.89 2.73 15.53 7.698 5.64-4.963 11.14-7.69 15.524-7.69 1.71 0 3.27.392 4.632 1.164 2.277 1.29 3.854 3.515 4.684 6.61.966 3.606.85 8.398-.333 13.88C74.043 29.437 79.5 34.468 79.5 40s-5.457 10.563-14.99 13.842c1.182 5.48 1.298 10.272.332 13.878-.83 3.097-2.405 5.32-4.68 6.612-1.364.772-2.923 1.164-4.633 1.164-4.386 0-9.89-2.728-15.527-7.69-5.64 4.967-11.142 7.696-15.527 7.696zm-5.137-20.497c-.99 4.717-1.102 8.747-.316 11.68.542 2.026 1.48 3.43 2.794 4.175.753.427 1.648.644 2.66.644 3.394 0 7.862-2.282 12.62-6.437-2.385-2.402-4.713-5.12-6.928-8.09-3.83-.416-7.47-1.078-10.83-1.97zm23.57 10.06c4.758 4.15 9.227 6.43 12.62 6.432 1.01 0 1.906-.217 2.66-.644 1.31-.742 2.246-2.144 2.787-4.167.786-2.934.676-6.963-.315-11.68-3.362.892-7.003 1.554-10.833 1.97-2.214 2.97-4.54 5.688-6.92 8.088zm-7.34-7.672c1.452 1.776 2.938 3.433 4.434 4.94a69.42 69.42 0 0 0 4.43-4.94A93.4 93.4 0 0 1 40 57.5a93.6 93.6 0 0 1-4.434-.107zM32.35 53.18A90.32 90.32 0 0 0 40 53.5c2.585 0 5.155-.108 7.646-.32a88.99 88.99 0 0 0 4.214-6.495 86.72 86.72 0 0 0 3.547-6.686 86.61 86.61 0 0 0-3.546-6.684 88.83 88.83 0 0 0-4.215-6.495c-2.49-.212-5.06-.32-7.646-.32s-5.16.108-7.647.32c-1.5 2.086-2.91 4.27-4.22 6.495a86.61 86.61 0 0 0-3.546 6.686 86.99 86.99 0 0 0 3.545 6.684 88.62 88.62 0 0 0 4.216 6.493zm25.142-8.4a91.58 91.58 0 0 1-2.185 3.934 91.35 91.35 0 0 1-2.386 3.836c2.374-.366 4.645-.835 6.77-1.4-.6-2.05-1.33-4.186-2.2-6.37zm-37.187 6.37a65.45 65.45 0 0 0 6.768 1.4 92.58 92.58 0 0 1-2.386-3.835 91.92 91.92 0 0 1-2.183-3.931c-.867 2.174-1.605 4.31-2.2 6.366zM59.816 40c1.528 3.39 2.773 6.743 3.708 9.977C70.926 47.373 75.5 43.574 75.5 40s-4.574-7.373-11.976-9.977c-.933 3.234-2.18 6.586-3.708 9.977zm-43.344-9.975C9.073 32.628 4.5 36.427 4.5 40s4.573 7.373 11.974 9.976c.934-3.235 2.18-6.587 3.705-9.974-1.527-3.388-2.772-6.74-3.707-9.977zm3.83-1.173c.594 2.054 1.332 4.2 2.2 6.368a92.46 92.46 0 0 1 2.184-3.932 91.13 91.13 0 0 1 2.388-3.836c-2.374.365-4.644.835-6.772 1.4zm32.62-1.4c.837 1.277 1.638 2.563 2.386 3.837a91.98 91.98 0 0 1 2.185 3.932c.87-2.177 1.607-4.313 2.2-6.37-2.13-.565-4.4-1.035-6.772-1.4zM24.47 8.497c-1.01 0-1.905.216-2.657.644-1.312.744-2.252 2.15-2.795 4.175-.785 2.935-.675 6.964.317 11.68 3.36-.892 7.002-1.555 10.834-1.97 2.217-2.97 4.545-5.688 6.927-8.088-4.76-4.157-9.23-6.44-12.626-6.44zm25.357 14.526c3.83.416 7.47 1.078 10.833 1.97.992-4.716 1.103-8.746.316-11.68-.542-2.022-1.48-3.424-2.8-4.166-.754-.427-1.65-.644-2.66-.644-3.393 0-7.86 2.28-12.62 6.433 2.38 2.4 4.706 5.117 6.92 8.087zM40 22.5c1.454 0 2.94.036 4.43.107-1.45-1.774-2.936-3.43-4.43-4.938-1.497 1.5-2.982 3.166-4.432 4.938A93.4 93.4 0 0 1 40 22.5z"/><path fill="#4e7ab5" d="M24.47 4.997c4.494 0 9.996 2.9 15.532 7.867 5.535-4.953 11.034-7.86 15.524-7.86 1.623 0 3.1.37 4.386 1.1 2.156 1.222 3.652 3.343 4.446 6.306 1.077 3.917.85 8.74-.434 14.08C73.147 29.57 79 34.43 79 40s-5.853 10.43-15.076 13.512c1.34 5.773 1.566 10.726.434 14.08-.794 2.962-2.29 5.084-4.443 6.306-1.29.73-2.46 1.103-4.082 1.103h-.417c-4.492 0-9.882-2.9-15.416-7.86-5.535 4.956-11.035 7.864-15.527 7.864-1.623 0-3.1-.37-4.386-1.1-2.158-1.225-3.655-3.35-4.448-6.314-1.2-3.717-.95-8.603.434-14.08C6.852 50.43 1 45.57 1 40s5.852-10.43 15.072-13.51c-.687-3.06-1.126-5.9-1.14-8.49-.012-2.046.267-3.95.707-5.6.794-2.966 2.3-5.1 4.448-6.314 1.286-.73 2.762-1.1 4.385-1.1m-5.513 20.617c3.477-.955 7.338-1.677 11.483-2.117 2.382-3.2 4.875-6.096 7.386-8.584-4.872-4.346-9.616-6.917-13.356-6.917-1.1 0-2.075.238-2.904.71-1.433.813-2.452 2.32-3.03 4.48-.858 3.202-.663 7.53.422 12.428m42.08-.001c1.085-4.898 1.28-9.227.422-12.43-.578-2.157-1.597-3.66-3.027-4.472-.83-.47-1.81-.71-2.907-.71-3.737 0-8.478 2.568-13.35 6.9 2.5 2.488 5 5.374 7.38 8.583 4.143.44 8.004 1.162 11.48 2.117m-26.562-2.447c1.802-.107 3.61-.2 5.488-.2s3.755.094 5.557.2c-1.808-2.28-3.664-4.36-5.52-6.204-1.857 1.843-3.714 3.925-5.524 6.204M40 54c2.76 0 5.404-.12 7.918-.342 1.52-2.117 2.988-4.365 4.372-6.72 1.353-2.3 2.577-4.626 3.67-6.94a87.03 87.03 0 0 0-3.669-6.937c-1.385-2.355-2.853-4.602-4.373-6.72A89.63 89.63 0 0 0 40 26a90.09 90.09 0 0 0-7.92.343 88.12 88.12 0 0 0-4.376 6.719 87.24 87.24 0 0 0-3.669 6.939c1.093 2.313 2.316 4.64 3.668 6.937a88.41 88.41 0 0 0 4.374 6.719c2.515.222 5.16.343 7.923.343m17.546-17.587c1.125-2.71 2.056-5.37 2.766-7.913-2.553-.702-5.373-1.282-8.428-1.707a91.97 91.97 0 0 1 2.992 4.748c.954 1.62 1.84 3.247 2.67 4.872m-35.097.001c.828-1.625 1.716-3.253 2.668-4.873a91.97 91.97 0 0 1 2.995-4.747c-3.055.424-5.875 1.005-8.428 1.707.7 2.544 1.64 5.203 2.765 7.913m40.74 14.208C71.264 47.886 76 43.866 76 40s-4.736-7.886-12.812-10.622c-.953 3.405-2.27 6.983-3.92 10.62 1.65 3.64 2.967 7.217 3.92 10.623M16.8 50.62c.952-3.404 2.267-6.982 3.918-10.62-1.65-3.638-2.967-7.217-3.92-10.622C8.734 32.116 4 36.135 4 40s4.735 7.885 12.8 10.62m35.074 2.586c3.055-.424 5.875-1.004 8.428-1.707-.71-2.544-1.642-5.204-2.766-7.914a92.61 92.61 0 0 1-2.67 4.873 91.97 91.97 0 0 1-2.992 4.748m-23.775-.001a93.04 93.04 0 0 1-2.993-4.746c-.952-1.62-1.84-3.246-2.667-4.87-1.124 2.708-2.054 5.367-2.764 7.9 2.552.7 5.37 1.28 8.424 1.706m-3.635 18.797c3.74 0 8.48-2.57 13.352-6.914-2.513-2.49-5.005-5.376-7.388-8.587-4.143-.44-8.002-1.16-11.478-2.116-1.084 4.898-1.28 9.226-.422 12.428.578 2.16 1.598 3.667 3.03 4.48.828.47 1.807.71 2.906.71m31.053-.006c1.1 0 2.076-.238 2.907-.71 1.43-.81 2.447-2.315 3.024-4.473.858-3.203.663-7.53-.42-12.428-3.477.955-7.337 1.677-11.48 2.116-2.38 3.2-4.87 6.096-7.38 8.585 4.87 4.34 9.613 6.908 13.352 6.91M40 63.04c1.857-1.844 3.713-3.927 5.522-6.206-1.8.107-3.56.333-5.44.333s-3.807-.226-5.61-.333c1.8 2.28 3.668 4.363 5.526 6.206M24.116 4.072c-1.8 0-3.085.338-4.523 1.153-2.4 1.36-4.055 3.69-4.92 6.926-.96 3.587-.877 8.302.236 13.68C5.42 29.19 0 34.325 0 40s5.42 10.81 14.91 14.168c-1.113 5.38-1.196 10.094-.235 13.68.865 3.233 2.52 5.563 4.92 6.926 1.44.816 3.17 1.163 4.968 1.163 4.487 0 9.753-2.535 15.438-7.466 5.684 4.926 11.04 7.524 15.525 7.525 1.8 0 3.44-.413 4.88-1.23 2.397-1.36 4.05-3.686 4.916-6.917.96-3.588.878-8.303-.235-13.68C74.58 50.812 80 45.676 80 40s-5.42-10.812-14.91-14.17c1.114-5.38 1.196-10.095.235-13.682-.866-3.23-2.52-5.558-4.92-6.917-1.44-.815-3.08-1.23-4.88-1.23-4.485 0-9.84 2.6-15.524 7.527-5.686-4.932-11.066-7.46-15.554-7.46l-.332.003zM19.72 24.377c-.462-2.324-.772-4.502-.79-6.412a16.77 16.77 0 0 1 .57-4.521c.507-1.892 1.368-3.194 2.56-3.87.676-.384 1.5-.644 2.423-.644 3.18 0 7.367 2.178 11.883 6.034-2.22 2.273-4.392 4.82-6.466 7.585-3.585.4-7.003 1.013-10.18 1.828zm23.918-9.41c4.515-3.853 8.71-5.963 11.888-5.963.924 0 1.737.195 2.414.58 1.19.674 2.05 1.973 2.555 3.86.874 2.818.76 6.564-.218 10.933-3.177-.814-6.594-1.428-10.178-1.826-2.073-2.765-4.242-5.31-6.46-7.584zm-6.965 7.094a68.9 68.9 0 0 1 3.328-3.678c1.12 1.148 2.23 2.378 3.326 3.678A93.3 93.3 0 0 0 40 22a93.34 93.34 0 0 0-3.327.06zm-4.048 5.24c2.405-.2 4.883-.34 7.375-.34s4.97.142 7.373.34c1.432 2.02 2.796 4.126 4.056 6.27a86.35 86.35 0 0 1 3.423 6.43c-1.05 2.192-2.202 4.354-3.424 6.432a87.92 87.92 0 0 1-4.056 6.269c-2.403.2-4.88.466-7.372.466s-4.972-.268-7.378-.467a87.37 87.37 0 0 1-4.058-6.269c-1.222-2.077-2.372-4.238-3.422-6.43 1.05-2.192 2.2-4.354 3.423-6.432 1.262-2.143 2.627-4.25 4.06-6.268zm24.797 6.724a94.03 94.03 0 0 0-1.683-2.99c-.57-.97-1.167-1.942-1.785-2.91 1.774.302 3.485.663 5.114 1.08-.467 1.566-1.018 3.178-1.646 4.82zm-36.494-4.82c1.63-.417 3.34-.778 5.114-1.08a91.83 91.83 0 0 0-1.786 2.908 94.03 94.03 0 0 0-1.683 2.99c-.628-1.64-1.178-3.25-1.645-4.818zM60.365 40c1.415-3.162 2.587-6.292 3.5-9.326C70.758 33.192 75 36.72 75 40s-4.242 6.808-11.145 9.327c-.904-3.035-2.075-6.166-3.5-9.328zm-44.223 9.327C9.24 46.807 5 43.278 5 40s4.24-6.807 11.14-9.326c.903 3.035 2.074 6.165 3.49 9.327-1.414 3.16-2.585 6.29-3.488 9.325zm37.81 2.55c.618-.968 1.216-1.94 1.785-2.91s1.135-1.973 1.684-2.99c.628 1.64 1.178 3.254 1.646 4.82a64.94 64.94 0 0 1-5.115 1.079zm-33.024-1.08c.467-1.566 1.017-3.177 1.644-4.816.548 1.017 1.11 2.017 1.682 2.988a91.08 91.08 0 0 0 1.785 2.908c-1.773-.303-3.483-.664-5.11-1.08zm3.545 20.208c-.924 0-1.736-.195-2.413-.58-1.2-.676-2.05-1.977-2.557-3.87-.83-2.845-.737-6.592.218-10.933 3.176.814 6.592 1.428 10.175 1.826 2.075 2.766 4.246 5.313 6.468 7.588-4.515 3.857-8.712 5.968-11.89 5.967zM50.098 57.45c3.584-.4 7-1.012 10.178-1.826 1.105 4.74 1.192 8.518.217 10.932-.505 1.89-1.364 3.188-2.552 3.86-.678.384-1.5.58-2.413.58v1l-.001-1c-3.18 0-7.377-2.1-11.89-5.96 2.22-2.273 4.39-4.82 6.462-7.585zM40 61.62a68.17 68.17 0 0 1-3.33-3.68c1.12.04 2.234.06 3.33.06a93.3 93.3 0 0 0 3.327-.06A68.14 68.14 0 0 1 40 61.62z"/></svg>